<?xml version="1.0" standalone="no"?>
<!DOCTYPE svg PUBLIC "-//W3C//DTD SVG 20010904//EN"
 "http://www.w3.org/TR/2001/REC-SVG-20010904/DTD/svg10.dtd">
<svg version="1.0" xmlns="http://www.w3.org/2000/svg"
 width="300" height="300" viewBox="0 0 512 512"
 preserveAspectRatio="xMidYMid meet">

<g transform="translate(0.000000,512.000000) scale(0.0234375,-0.0234375)"
fill="#ffffff" stroke="none">
<path d="M2803 4730 c-389 -186 -635 -509 -724 -949 -13 -62 -22 -159 -26
-273 l-6 -177 63 -96 c105 -163 181 -347 225 -547 l17 -78 26 19 c56 40 242
241 319 344 150 202 262 459 315 717 20 102 23 143 23 355 -1 187 -4 261 -18
334 -24 126 -73 314 -95 362 l-17 39 -102 -50z"/>
<path d="M783 3908 c-13 -22 -16 -461 -4 -568 60 -528 299 -932 714 -1209 112
-76 304 -165 442 -206 77 -23 126 -43 137 -56 17 -20 18 -72 18 -785 l0 -764
59 0 60 0 3 1038 c2 570 0 1074 -4 1119 -23 254 -128 535 -278 745 -152 212
-411 419 -675 538 -186 85 -458 169 -472 148z"/>
<path d="M3200 2035 c-293 -48 -580 -229 -769 -485 l-61 -82 0 -208 0 -208
108 -26 c334 -79 718 -102 958 -57 344 66 602 224 767 473 55 82 117 210 132
270 8 33 -3 41 -200 138 -157 78 -338 142 -483 171 -129 26 -341 33 -452 14z"/>
</g>
</svg>
