<!-- <svg id="visual" viewBox="0 0 900 600" width="900" height="1200" xmlns="http://www.w3.org/2000/svg" xmlns:xlink="http://www.w3.org/1999/xlink" version="1.1">
  <rect x="0" y="0" width="900" height="1200" fill="#232323"></rect>
  <path d="M0 467L37.5 476.8C75 486.7 150 506.3 225 501.7C300 497 375 468 450 433C525 398 600 357 675 366.2C750 375.3 825 434.7 862.5 464.3L900 494L900 601L862.5 601C825 601 750 601 675 601C600 601 525 601 450 601C375 601 300 601 225 601C150 601 75 601 37.5 601L0 601Z" fill="#90a955" stroke-linecap="round" stroke-linejoin="miter"></path>
  <path d="M0 487L37.5 496.8C75 506.7 150 526.3 225 521.7C300 517 375 488 450 453C525 418 600 377 675 386.2C750 395.3 825 454.7 862.5 484.3L900 514L900 601L862.5 601C825 601 750 601 675 601C600 601 525 601 450 601C375 601 300 601 225 601C150 601 75 601 37.5 601L0 601Z" fill="#4f772d" stroke-linecap="round" stroke-linejoin="miter"></path>
  <path d="M0 507L37.5 516.8C75 526.7 150 546.3 225 541.7C300 537 375 508 450 473C525 438 600 397 675 406.2C750 415.3 825 474.7 862.5 504.3L900 534L900 601L862.5 601C825 601 750 601 675 601C600 601 525 601 450 601C375 601 300 601 225 601C150 601 75 601 37.5 601L0 601Z" fill="#31572c" stroke-linecap="round" stroke-linejoin="miter"></path>
  <path d="M0 527L37.5 536.8C75 546.7 150 566.3 225 561.7C300 557 375 528 450 493C525 458 600 417 675 426.2C750 435.3 825 494.7 862.5 524.3L900 554L900 601L862.5 601C825 601 750 601 675 601C600 601 525 601 450 601C375 601 300 601 225 601C150 601 75 601 37.5 601L0 601Z" fill="#132a13" stroke-linecap="round" stroke-linejoin="miter"></path>
</svg> -->

<svg width="1600" height="170" viewBox="0 0 1600 170" fill="none" xmlns="http://www.w3.org/2000/svg">
<path fill-rule="evenodd" clip-rule="evenodd" d="M1600 66.1113C1289 66.1113 1190.1 170.215 789 170C389 170 289 66.1113 0 66.1113V0.000165525H1600C1600 0.000165525 1600 41.2123 1600 66.1113Z" fill="#232323"/>
</svg>
